<svg width="12" height="11" viewBox="0 0 12 11" fill="none" xmlns="http://www.w3.org/2000/svg">
<path d="M2.51447 0.697231C3.84439 1.70978 5.27487 3.76281 5.80007 4.86458C6.32531 3.76289 7.75571 1.70976 9.08567 0.697231C10.0453 -0.0333841 11.6001 -0.598692 11.6001 1.20015C11.6001 1.5594 11.397 4.21806 11.2778 4.64968C10.8638 6.1503 9.35497 6.53304 8.01285 6.30139C10.3588 6.70632 10.9556 8.04759 9.66679 9.38887C7.21899 11.9362 6.14859 8.74973 5.87419 7.93324C5.82391 7.78356 5.80038 7.71353 5.80003 7.77307C5.79969 7.71353 5.77616 7.78356 5.72588 7.93324C5.4516 8.74973 4.38122 11.9363 1.93328 9.38887C0.6444 8.04759 1.24118 6.70624 3.58722 6.30139C2.24506 6.53304 0.73622 6.1503 0.32222 4.64968C0.203096 4.21802 0 1.55936 0 1.20015C0 -0.598692 1.55484 -0.0333841 2.5144 0.697231H2.51447Z" fill="currentColor"/>
</svg>
