<svg width="12" height="12" viewBox="0 0 12 12" fill="none" xmlns="http://www.w3.org/2000/svg">
<path fill-rule="evenodd" clip-rule="evenodd" d="M6.00496 0C2.68437 0 0 2.70416 0 6.04958C0 8.72375 1.71997 10.9874 4.10603 11.7886C4.40435 11.8488 4.51362 11.6584 4.51362 11.4982C4.51362 11.358 4.50378 10.8773 4.50378 10.3764C2.83335 10.737 2.4855 9.65522 2.4855 9.65522C2.21705 8.9541 1.81929 8.7739 1.81929 8.7739C1.27255 8.40331 1.85911 8.40331 1.85911 8.40331C2.46558 8.44338 2.78381 9.02429 2.78381 9.02429C3.32059 9.94567 4.18555 9.68533 4.53353 9.52505C4.58319 9.13442 4.74237 8.864 4.91138 8.7138C3.57908 8.57355 2.17734 8.05275 2.17734 5.72902C2.17734 5.06797 2.4158 4.52714 2.79365 4.10652C2.73403 3.95631 2.5252 3.33522 2.85338 2.50393C2.85338 2.50393 3.36042 2.34365 4.50366 3.12491C4.99313 2.99248 5.4979 2.92512 6.00496 2.92455C6.512 2.92455 7.02886 2.99474 7.50614 3.12491C8.64951 2.34365 9.15655 2.50393 9.15655 2.50393C9.48473 3.33522 9.27577 3.95631 9.21616 4.10652C9.60396 4.52714 9.83259 5.06797 9.83259 5.72902C9.83259 8.05275 8.43085 8.56347 7.0886 8.7138C7.30739 8.90407 7.49619 9.26459 7.49619 9.83554C7.49619 10.6468 7.48635 11.2979 7.48635 11.4981C7.48635 11.6584 7.59575 11.8488 7.89395 11.7887C10.28 10.9873 12 8.72375 12 6.04958C12.0098 2.70416 9.3156 0 6.00496 0Z" fill="currentColor"/>
</svg>
