<svg xmlns="http://www.w3.org/2000/svg" width="599" height="159" fill="none" viewBox="0 0 599 159"><g fill="#fff" clip-path="url(#a)"><path d="M110.82 121.236h12.709l62.932-84.1271h-12.876z"/><path d="M198.851 134.239v.028l-36.413-48.5091-6.703 8.7374 40.161 55.2537H8.53622V8.52841H91.5071L137.159 69.2306l6.661-8.6817-38.475-52.02049h.028L98.8928 0H.00781v158.277H216.535zM238.629 123.523c6.41 0 11.984-1.171 16.708-3.512 4.725-2.341 8.668-5.546 11.818-9.615 3.149-4.069 5.49-8.807 7.009-14.1865 1.519-5.379 2.286-11.0646 2.286-17.0429 0-5.9782-.767-11.6638-2.286-17.0429-1.519-5.379-3.86-10.1031-7.009-14.1861-3.15-4.0691-7.093-7.3021-11.818-9.699-4.724-2.3829-10.298-3.5814-16.708-3.5814-6.842 0-12.96 1.6026-18.339 4.8077s-9.267 7.748-11.664 13.6148h-.32V37.0959h-9.462v76.9091l10.27 13.963V105.24h.321c1.087 3.037 2.633 5.713 4.64 7.985 2.007 2.285 4.32 4.18 6.926 5.713 2.606 1.519 5.435 2.662 8.473 3.428 3.037.753 6.089 1.143 9.127 1.143zm-22.91-19.886c-2.341-3.372-4.027-7.2045-5.058-11.4966s-1.547-8.612-1.547-12.9599c0-4.7798.46-9.3505 1.38-13.6984.919-4.3478 2.522-8.1521 4.807-11.413 2.286-3.2608 5.324-5.8668 9.128-7.8316 3.804-1.951 8.528-2.9404 14.186-2.9404 4.891 0 9.072 1.0591 12.556 3.1773 3.484 2.1181 6.326 4.8634 8.556 8.2357 2.23 3.3724 3.86 7.2046 4.891 11.4967 1.032 4.292 1.547 8.612 1.547 12.9598s-.515 8.6678-1.547 12.9598c-1.031 4.2921-2.661 8.1246-4.891 11.4966s-5.086 6.118-8.556 8.236c-3.484 2.118-7.665 3.177-12.556 3.177-5.435 0-10.033-1.059-13.782-3.177s-6.8-4.864-9.128-8.236z"/><path d="m113.754 0 6.48 8.52841h470.219V149.749H225.125l6.271 8.528h367.585V0zM98.4977 49.414c-2.9961-4.4036-6.8701-7.9571-11.6638-10.6745-4.7799-2.7174-10.5491-4.0691-17.2798-4.0691-6.7308 0-12.3607 1.2821-17.1962 3.8322-4.8356 2.5502-8.7793 5.9225-11.8172 10.1031-3.0378 4.1806-5.2954 8.9465-6.7725 14.2698-1.4632 5.3233-2.2018 10.758-2.2018 16.3043 0 5.9782.7386 11.6639 2.2018 17.0429 1.4632 5.3793 3.7207 10.1033 6.7725 14.1863 3.0379 4.083 6.9816 7.288 11.8172 9.615 4.8355 2.341 10.563 3.512 17.1962 3.512 10.6465 0 18.8823-2.606 24.7073-7.832 5.8106-5.212 9.8106-12.611 11.9846-22.1708H95.9754c-1.6304 6.5218-4.5708 11.7338-8.8071 15.6498-4.2363 3.915-10.1031 5.866-17.6142 5.866-4.8913 0-9.0719-1.031-12.5557-3.093-3.4839-2.063-6.3545-4.669-8.6399-7.832-2.2854-3.149-3.9437-6.7168-4.9749-10.6744-.9198-3.5117-1.4214-6.912-1.5329-10.2146-.0279-.864-.0697-1.7141-.1254-2.5781-.1812-2.5501-.1533-5.0445.1254-7.4832.432-3.7626 1.3238-7.4415 2.6755-11.0368 1.3518-3.6371 3.1773-6.8422 5.4627-9.6154 2.2854-2.7731 5.0585-5.0027 8.3194-6.6889 3.2608-1.6862 7.0094-2.5223 11.2458-2.5223 4.2363 0 7.8316.8361 11.0925 2.5223 3.2608 1.6862 6.034 3.9158 8.3194 6.6889 2.2854 2.7732 4.0412 5.9504 5.2954 9.5318 1.2541 3.5814 1.923 7.3439 2.0345 11.2458H50.7553l.0418 8.6399h55.7689c.223-5.8668-.32-11.6639-1.63-17.3634-1.31-5.6996-3.456-10.7581-6.4383-15.1616"/><path d="M292.434 37.1093v84.1277h10.27V76.393c0-4.4593.752-8.5563 2.285-12.3049q2.2785-5.6229 6.438-9.699c2.774-2.7174 6.062-4.8077 9.867-6.2709 3.804-1.4632 8.04-2.0903 12.723-1.8813V35.9666c-7.609-.3205-14.159 1.3657-19.649 5.0585-5.491 3.6929-9.532 8.9604-12.152 15.8166h-.32V37.1093zM409.994 64.5756c-1.31-5.6996-3.456-10.7581-6.438-15.1616-2.996-4.4036-6.87-7.9571-11.664-10.6745-4.779-2.7174-10.549-4.0691-17.279-4.0691-6.731 0-12.361 1.2821-17.196 3.8322-4.836 2.5502-8.78 5.9225-11.818 10.1031s-5.295 8.9465-6.772 14.2698c-1.463 5.3233-2.202 10.758-2.202 16.3043 0 5.9782.739 11.6639 2.202 17.0429 1.463 5.3793 3.721 10.1033 6.772 14.1863 3.038 4.083 6.982 7.288 11.818 9.615 4.835 2.341 10.562 3.512 17.196 3.512 10.646 0 18.882-2.606 24.707-7.832 5.811-5.212 9.81-12.611 11.984-22.1708h-10.27c-1.63 6.5218-4.571 11.7338-8.807 15.6498-4.236 3.915-10.103 5.866-17.614 5.866-4.892 0-9.072-1.031-12.556-3.093-3.484-2.063-6.355-4.669-8.64-7.832-2.285-3.149-3.944-6.7168-4.975-10.6744-1.031-3.9716-1.547-7.8038-1.547-11.4967h64.73c.223-5.8667-.321-11.6638-1.631-17.3634zm-63.099 8.7235c.432-3.8043 1.324-7.5251 2.69-11.1622 1.352-3.6371 3.177-6.8422 5.462-9.6154 2.286-2.7731 5.059-5.0027 8.32-6.6889s7.009-2.5223 11.246-2.5223c4.236 0 7.831.8361 11.092 2.5223s6.034 3.9158 8.32 6.6889c2.285 2.7732 4.041 5.9504 5.295 9.5318s1.923 7.3439 2.035 11.2458zM470.971 111.455c-2.286 1.31-4.752 2.23-7.414 2.773-2.662.544-5.24.808-7.748.808-6.842 0-12.584-1.769-17.196-5.295-4.627-3.526-7.149-8.779-7.581-15.733h-10.27c.864 10.326 4.375 17.823 10.521 22.506 6.145 4.668 14.158 7.009 24.052 7.009 3.916 0 7.874-.432 11.901-1.31 4.013-.864 7.637-2.313 10.842-4.32s5.839-4.612 7.901-7.832c2.062-3.205 3.094-7.093 3.094-11.6634 0-3.6928-.711-6.898-2.119-9.6154-1.407-2.7173-3.233-5.0027-5.462-6.8422-2.23-1.8534-4.78-3.3445-7.665-4.4872-2.884-1.1427-5.783-1.923-8.723-2.369l-13.699-3.0936c-1.741-.432-3.637-1.0034-5.713-1.7141-2.062-.7107-3.972-1.6025-5.7-2.6895-1.741-1.0869-3.177-2.4108-4.319-3.9994-1.143-1.5747-1.715-3.5117-1.715-5.7832 0-2.7173.6-5.0027 1.798-6.8422 1.199-1.8534 2.773-3.3445 4.724-4.4872s4.097-1.9509 6.438-2.4526c2.341-.4877 4.641-.7386 6.926-.7386 2.94 0 5.714.3484 8.32 1.0591 2.605.7107 4.919 1.8256 6.925 3.3445 2.007 1.519 3.61 3.456 4.808 5.7832 1.199 2.3411 1.853 5.0863 1.951 8.2357h10.27c-.223-4.5708-1.142-8.5284-2.773-11.9007-1.63-3.3724-3.832-6.2012-6.605-8.4727-2.773-2.2854-5.978-3.9716-9.616-5.0585-3.637-1.087-7.58-1.6304-11.817-1.6304-3.692 0-7.413.4319-11.162 1.3099-3.748.8779-7.149 2.2296-10.187 4.083-3.037 1.8534-5.518 4.2921-7.413 7.3439-1.909 3.0379-2.857 6.689-2.857 10.9253 0 3.5814.599 6.6054 1.798 9.044 1.198 2.4387 2.857 4.5151 4.975 6.2012 2.118 1.6862 4.584 3.0937 7.413 4.2364s5.923 2.146 9.295 3.01l13.211 2.9404c2.285.5434 4.543 1.1984 6.772 1.9509 2.23.7664 4.209 1.714 5.951 2.8567s3.121 2.5502 4.152 4.2364c1.032 1.6861 1.547 3.7764 1.547 6.2709 0 2.9404-.738 5.4064-2.201 7.4134-1.464 2.007-3.345 3.665-5.63 4.975zM549.385 111.455c-2.286 1.31-4.752 2.23-7.414 2.773-2.661.544-5.24.808-7.748.808-6.842 0-12.583-1.769-17.196-5.295-4.627-3.526-7.149-8.779-7.581-15.733h-10.27c.864 10.326 4.375 17.823 10.521 22.506 6.145 4.668 14.158 7.009 24.052 7.009 3.916 0 7.874-.432 11.901-1.31 4.013-.864 7.637-2.313 10.842-4.32s5.839-4.612 7.901-7.832c2.062-3.205 3.094-7.093 3.094-11.6634 0-3.6928-.711-6.898-2.118-9.6154-1.408-2.7173-3.233-5.0027-5.463-6.8422-2.23-1.8534-4.78-3.3445-7.665-4.4872-2.884-1.1427-5.783-1.923-8.723-2.369l-13.698-3.0936c-1.742-.432-3.638-1.0034-5.714-1.7141-2.062-.7107-3.971-1.6025-5.699-2.6895-1.742-1.0869-3.178-2.4108-4.32-3.9994-1.143-1.5747-1.714-3.5117-1.714-5.7832 0-2.7173.599-5.0027 1.797-6.8422 1.199-1.8534 2.773-3.3445 4.724-4.4872s4.097-1.9509 6.438-2.4526c2.342-.4877 4.641-.7386 6.926-.7386 2.941 0 5.714.3484 8.32 1.0591s4.919 1.8256 6.925 3.3445c2.007 1.519 3.61 3.456 4.808 5.7832 1.199 2.3411 1.854 5.0863 1.951 8.2357h10.27c-.223-4.5708-1.142-8.5284-2.773-11.9007-1.63-3.3724-3.832-6.2012-6.605-8.4727-2.773-2.2854-5.978-3.9716-9.615-5.0585-3.638-1.087-7.581-1.6304-11.818-1.6304-3.692 0-7.413.4319-11.162 1.3099-3.748.8779-7.149 2.2296-10.186 4.083-3.038 1.8534-5.519 4.2921-7.414 7.3439-1.909 3.0379-2.857 6.689-2.857 10.9253 0 3.5814.599 6.6054 1.798 9.044 1.198 2.4387 2.857 4.5151 4.975 6.2012 2.118 1.6862 4.584 3.0937 7.413 4.2364s5.923 2.146 9.295 3.01l13.211 2.9404c2.285.5434 4.543 1.1984 6.772 1.9509 2.23.7664 4.209 1.714 5.951 2.8567s3.121 2.5502 4.153 4.2364c1.031 1.6861 1.546 3.7764 1.546 6.2709 0 2.9404-.738 5.4064-2.201 7.4134-1.464 2.007-3.345 3.665-5.63 4.975z"/></g><defs><clipPath id="a"><path fill="#fff" d="M0 0h598.982v158.277H0z"/></clipPath></defs></svg>
