<svg width="182" height="48" viewBox="0 0 182 48" fill="none" xmlns="http://www.w3.org/2000/svg">
<g clip-path="url(#clip0_1109_17921)">
<path d="M33.5509 36.7669H36.6825L55.7675 11.254H52.5895L33.5509 36.7669Z" fill="black"/>
<path d="M60.3021 40.71V40.7184L48.4437 25.1073L46.918 27.1316L60.2514 45.4136H2.58637V2.58645H28.5937L42.3412 20.915L43.9133 18.802L31.945 2.58645H31.9535L29.9883 7.99096e-05H0V48H65.665L60.3021 40.71Z" fill="black"/>
<path d="M12.6867 22.2292C12.6867 22.2292 12.6867 22.2123 12.6867 22.2081C12.6867 22.2166 12.6867 22.225 12.6867 22.2292Z" fill="black"/>
<path d="M72.3676 37.4601C74.3116 37.4601 76.002 37.1051 77.4346 36.3951C78.8673 35.6851 80.0633 34.7131 81.0184 33.4791C81.9734 32.2451 82.6834 30.8082 83.1441 29.177C83.6047 27.5457 83.8372 25.8215 83.8372 24.0085C83.8372 22.1955 83.6047 20.4712 83.1441 18.84C82.6834 17.2087 81.9734 15.776 81.0184 14.5378C80.0633 13.3038 78.8673 12.3233 77.4346 11.5964C76.002 10.8738 74.3116 10.5103 72.3676 10.5103C70.2925 10.5103 68.4373 10.9963 66.806 11.9683C65.1747 12.9403 63.9957 14.318 63.2688 16.0972H63.1716V11.2499H60.3021V34.5737L63.4167 38.8082V31.9155H63.5139C63.8435 32.8368 64.3126 33.6482 64.9212 34.337C65.5297 35.0301 66.2313 35.6048 67.0215 36.0697C67.8118 36.5304 68.6697 36.8769 69.591 37.1093C70.5123 37.3375 71.4378 37.4559 72.3591 37.4559L72.3676 37.4601ZM65.4199 31.4295C64.7099 30.4068 64.1985 29.2446 63.8858 27.9429C63.5731 26.6413 63.4167 25.3312 63.4167 24.0127C63.4167 22.5631 63.5562 21.177 63.8351 19.8584C64.114 18.5399 64.6 17.3862 65.2931 16.3973C65.9862 15.4084 66.9074 14.6181 68.0612 14.0222C69.2149 13.4306 70.6475 13.1305 72.3633 13.1305C73.8467 13.1305 75.1145 13.4517 76.171 14.0941C77.2276 14.7364 78.0897 15.569 78.7658 16.5917C79.442 17.6144 79.9365 18.7766 80.2492 20.0782C80.5619 21.3798 80.7183 22.6899 80.7183 24.0085C80.7183 25.327 80.5619 26.6371 80.2492 27.9387C79.9365 29.2404 79.442 30.4025 78.7658 31.4252C78.0897 32.448 77.2233 33.2805 76.171 33.9229C75.1145 34.5652 73.8467 34.8864 72.3633 34.8864C70.7151 34.8864 69.3205 34.5652 68.1837 33.9229C67.0469 33.2805 66.1214 32.448 65.4156 31.4252L65.4199 31.4295Z" fill="black"/>
<path d="M34.4976 0L36.4627 2.58637H179.064V45.4136H68.2725L70.1742 47.9999H181.65V0H34.4976Z" fill="black"/>
<path d="M29.87 14.9857C28.9614 13.6502 27.7865 12.5726 26.3328 11.7485C24.8832 10.9244 23.1336 10.5145 21.0924 10.5145C19.0512 10.5145 17.3439 10.9033 15.8774 11.6766C14.411 12.45 13.215 13.4727 12.2937 14.7406C11.3724 16.0084 10.6878 17.4537 10.2398 19.0681C9.79607 20.6824 9.57209 22.3306 9.57209 24.0126C9.57209 25.8256 9.79607 27.5498 10.2398 29.1811C10.6835 30.8124 11.3682 32.245 12.2937 33.4833C13.215 34.7215 14.411 35.6935 15.8774 36.3993C17.3439 37.1092 19.0808 37.4642 21.0924 37.4642C24.3211 37.4642 26.8188 36.674 28.5853 35.0892C30.3475 33.5086 31.5604 31.2646 32.2197 28.3655H29.1051C28.6106 30.3433 27.7189 31.9238 26.4342 33.1114C25.1495 34.2989 23.3703 34.8905 21.0924 34.8905C19.609 34.8905 18.3412 34.5778 17.2847 33.9524C16.2282 33.3269 15.3576 32.5366 14.6645 31.5773C13.9714 30.6222 13.4685 29.5403 13.1558 28.3401C12.8769 27.2751 12.7247 26.244 12.6909 25.2424C12.6825 24.9804 12.6698 24.7226 12.6529 24.4606C12.598 23.6872 12.6064 22.9307 12.6909 22.1911C12.8219 21.0501 13.0924 19.9344 13.5023 18.8441C13.9123 17.7411 14.4659 16.7691 15.159 15.9281C15.8521 15.0871 16.693 14.4109 17.682 13.8996C18.6709 13.3882 19.8077 13.1346 21.0924 13.1346C22.3771 13.1346 23.4675 13.3882 24.4564 13.8996C25.4453 14.4109 26.2863 15.0871 26.9793 15.9281C27.6724 16.7691 28.2049 17.7326 28.5853 18.8187C28.9656 19.9048 29.1685 21.0459 29.2023 22.2292H15.3914L15.4041 24.8494H32.3169C32.3845 23.0702 32.2197 21.3121 31.8224 19.5836C31.4252 17.8552 30.7744 16.3211 29.87 14.9857Z" fill="black"/>
<path d="M88.6845 11.2541V36.767H91.7991V23.1674C91.7991 21.8151 92.0273 20.5726 92.4922 19.4358C92.9528 18.299 93.6036 17.3185 94.4446 16.4944C95.2856 15.6703 96.283 15.0364 97.4367 14.5927C98.5904 14.149 99.8752 13.9588 101.295 14.0222V10.9075C98.9877 10.8103 97.0014 11.3217 95.3363 12.4416C93.6713 13.5615 92.4457 15.159 91.6512 17.2382H91.554V11.2541H88.6845Z" fill="black"/>
<path d="M124.336 19.5836C123.939 17.8552 123.288 16.3211 122.383 14.9857C121.475 13.6502 120.3 12.5726 118.846 11.7485C117.397 10.9244 115.647 10.5145 113.606 10.5145C111.565 10.5145 109.857 10.9033 108.391 11.6766C106.924 12.45 105.728 13.4727 104.807 14.7406C103.886 16.0084 103.201 17.4537 102.753 19.0681C102.309 20.6824 102.085 22.3306 102.085 24.0126C102.085 25.8256 102.309 27.5498 102.753 29.1811C103.197 30.8124 103.881 32.245 104.807 33.4833C105.728 34.7215 106.924 35.6935 108.391 36.3993C109.857 37.1092 111.594 37.4642 113.606 37.4642C116.834 37.4642 119.332 36.674 121.099 35.0892C122.861 33.5086 124.074 31.2646 124.733 28.3655H121.618C121.124 30.3433 120.232 31.9238 118.947 33.1114C117.663 34.2989 115.884 34.8905 113.606 34.8905C112.122 34.8905 110.855 34.5778 109.798 33.9524C108.741 33.3269 107.871 32.5366 107.178 31.5773C106.485 30.6222 105.982 29.5403 105.669 28.3401C105.356 27.1357 105.2 25.9735 105.2 24.8536H124.83C124.898 23.0744 124.733 21.3163 124.336 19.5879V19.5836ZM105.2 22.2292C105.331 21.0755 105.602 19.9471 106.016 18.8441C106.426 17.7411 106.979 16.7691 107.672 15.9281C108.365 15.0871 109.206 14.4109 110.195 13.8996C111.184 13.3882 112.321 13.1346 113.606 13.1346C114.89 13.1346 115.981 13.3882 116.97 13.8996C117.959 14.4109 118.8 15.0871 119.493 15.9281C120.186 16.7691 120.718 17.7326 121.099 18.8187C121.479 19.9048 121.682 21.0459 121.716 22.2292H105.2Z" fill="black"/>
<path d="M142.829 33.8003C142.136 34.1976 141.388 34.4765 140.581 34.6413C139.774 34.8061 138.992 34.8864 138.231 34.8864C136.156 34.8864 134.415 34.3497 133.016 33.2805C131.613 32.2113 130.848 30.6181 130.717 28.5092H127.603C127.865 31.6408 128.93 33.9144 130.793 35.3344C132.657 36.7501 135.087 37.4601 138.087 37.4601C139.275 37.4601 140.475 37.3291 141.697 37.0628C142.914 36.8008 144.012 36.3613 144.984 35.7528C145.956 35.1442 146.755 34.3539 147.381 33.3777C148.006 32.4057 148.319 31.2266 148.319 29.8405C148.319 28.7205 148.103 27.7485 147.676 26.9245C147.25 26.1004 146.696 25.4073 146.02 24.8495C145.344 24.2874 144.57 23.8352 143.695 23.4886C142.821 23.1421 141.942 22.9054 141.05 22.7702L136.896 21.832C136.367 21.701 135.793 21.5277 135.163 21.3122C134.538 21.0967 133.959 20.8262 133.435 20.4966C132.906 20.1669 132.471 19.7655 132.124 19.2837C131.778 18.8061 131.605 18.2187 131.605 17.5299C131.605 16.7058 131.786 16.0127 132.15 15.4549C132.513 14.8928 132.991 14.4406 133.582 14.0941C134.174 13.7475 134.825 13.5024 135.535 13.3503C136.245 13.2023 136.942 13.1263 137.635 13.1263C138.527 13.1263 139.368 13.2319 140.158 13.4475C140.949 13.663 141.65 14.0011 142.259 14.4617C142.867 14.9224 143.353 15.5098 143.717 16.2155C144.08 16.9255 144.279 17.7581 144.308 18.7132H147.423C147.355 17.327 147.076 16.1268 146.582 15.1041C146.087 14.0814 145.42 13.2235 144.579 12.5346C143.738 11.8415 142.766 11.3302 141.663 11.0006C140.56 10.6709 139.364 10.5061 138.079 10.5061C136.959 10.5061 135.831 10.6371 134.694 10.9034C133.557 11.1696 132.526 11.5795 131.605 12.1416C130.683 12.7037 129.931 13.4432 129.356 14.3687C128.777 15.29 128.49 16.3973 128.49 17.682C128.49 18.7681 128.672 19.6852 129.035 20.4247C129.399 21.1643 129.902 21.794 130.544 22.3053C131.186 22.8167 131.934 23.2435 132.792 23.5901C133.65 23.9366 134.588 24.2409 135.611 24.5029L139.617 25.3946C140.31 25.5594 140.995 25.7581 141.671 25.9863C142.347 26.2187 142.947 26.5061 143.476 26.8526C144.004 27.1992 144.422 27.626 144.735 28.1373C145.048 28.6487 145.204 29.2826 145.204 30.0391C145.204 30.9308 144.98 31.6788 144.536 32.2874C144.093 32.8959 143.522 33.3988 142.829 33.7961V33.8003Z" fill="black"/>
<path d="M166.609 33.8003C165.916 34.1976 165.168 34.4765 164.361 34.6413C163.554 34.8061 162.772 34.8864 162.011 34.8864C159.936 34.8864 158.195 34.3497 156.796 33.2805C155.393 32.2113 154.628 30.6181 154.497 28.5092H151.383C151.645 31.6408 152.71 33.9144 154.573 35.3344C156.437 36.7501 158.867 37.4601 161.868 37.4601C163.055 37.4601 164.255 37.3291 165.477 37.0628C166.694 36.8008 167.793 36.3613 168.765 35.7528C169.737 35.1442 170.535 34.3539 171.161 33.3777C171.786 32.4057 172.099 31.2266 172.099 29.8405C172.099 28.7205 171.883 27.7485 171.457 26.9245C171.03 26.1004 170.476 25.4073 169.8 24.8495C169.124 24.2874 168.35 23.8352 167.476 23.4886C166.601 23.1421 165.722 22.9054 164.83 22.7702L160.676 21.832C160.148 21.701 159.573 21.5277 158.943 21.3122C158.318 21.0967 157.739 20.8262 157.215 20.4966C156.686 20.1669 156.251 19.7655 155.905 19.2837C155.558 18.8061 155.385 18.2187 155.385 17.5299C155.385 16.7058 155.567 16.0127 155.93 15.4549C156.293 14.8928 156.771 14.4406 157.363 14.0941C157.954 13.7475 158.605 13.5024 159.315 13.3503C160.025 13.2023 160.722 13.1263 161.415 13.1263C162.307 13.1263 163.148 13.2319 163.938 13.4475C164.729 13.663 165.43 14.0011 166.039 14.4617C166.647 14.9224 167.133 15.5098 167.497 16.2155C167.86 16.9255 168.059 17.7581 168.088 18.7132H171.203C171.135 17.327 170.857 16.1268 170.362 15.1041C169.868 14.0814 169.2 13.2235 168.359 12.5346C167.518 11.8415 166.546 11.3302 165.443 11.0006C164.34 10.6709 163.144 10.5061 161.859 10.5061C160.739 10.5061 159.611 10.6371 158.474 10.9034C157.337 11.1696 156.306 11.5795 155.385 12.1416C154.464 12.7037 153.711 13.4432 153.137 14.3687C152.558 15.29 152.27 16.3973 152.27 17.682C152.27 18.7681 152.452 19.6852 152.815 20.4247C153.179 21.1643 153.682 21.794 154.324 22.3053C154.966 22.8167 155.714 23.2435 156.572 23.5901C157.43 23.9366 158.368 24.2409 159.391 24.5029L163.398 25.3946C164.091 25.5594 164.775 25.7581 165.451 25.9863C166.128 26.2187 166.728 26.5061 167.256 26.8526C167.784 27.1992 168.203 27.626 168.515 28.1373C168.828 28.6487 168.984 29.2826 168.984 30.0391C168.984 30.9308 168.76 31.6788 168.317 32.2874C167.873 32.8959 167.302 33.3988 166.609 33.7961V33.8003Z" fill="black"/>
<path d="M12.6952 22.1912C12.6952 22.1912 12.6952 22.2039 12.6952 22.2081C12.6952 22.2039 12.6952 22.1996 12.6952 22.1912Z" fill="black"/>
</g>
<defs>
<clipPath id="clip0_1109_17921">
<rect width="181.65" height="48" fill="white"/>
</clipPath>
</defs>
</svg>
