<svg width="12" height="12" viewBox="0 0 12 12" fill="none" xmlns="http://www.w3.org/2000/svg">
<path fill-rule="evenodd" clip-rule="evenodd" d="M9.81465 5.98423C9.81465 6.73985 9.59527 7.46454 9.21877 8.06304L10.7555 9.60616C11.5081 8.59835 11.9786 7.33854 11.9786 5.98404C11.9786 4.62954 11.508 3.36991 10.7555 2.36191L9.21877 3.90504C9.59509 4.50354 9.81465 5.19673 9.81465 5.98423Z" fill="currentColor"/>
<path fill-rule="evenodd" clip-rule="evenodd" d="M5.99006 9.82687C3.88875 9.82687 2.16394 8.09437 2.16394 5.98444C2.16394 3.8745 3.88894 2.142 5.99006 2.142C6.77419 2.142 7.46381 2.3625 8.06006 2.772L9.59681 1.22887C8.59312 0.4725 7.33875 0 5.99006 0C2.69681 0 0 2.67712 0 6.01575C0 9.35437 2.69681 12 5.99006 12C7.37006 12 8.62444 11.5275 9.62812 10.7719L8.09137 9.22875C7.4955 9.60675 6.77419 9.82687 5.99006 9.82687Z" fill="currentColor"/>
</svg>
