<svg xmlns="http://www.w3.org/2000/svg" width="4096" height="1528" fill="none" viewBox="0 0 4096 1528"><g clip-path="url(#a)"><path fill="#302f33" d="M3542.82 950.183c62.1 0 119.97-25.406 129.14-64.926 2.83 25.406 16.94 44.46 37.41 54.34 18.34 9.175 40.93 10.586 62.81 2.117V878.2c-9.18 2.117-19.06 2.823-26.82-3.529-7.77-6.351-13.41-20.466-13.41-46.577V703.182c0-76.924-57.87-124.912-158.79-124.912-87.51 0-153.84 35.991-162.31 90.331l67.75 19.761c5.64-27.523 38.81-46.578 90.33-46.578 49.4 0 88.21 16.232 88.21 43.049 0 25.406-35.28 37.403-122.79 43.754-83.28 6.352-134.09 46.578-134.09 111.504 0 64.22 50.11 110.092 142.56 110.092m0-62.809c-41.64 0-67.05-17.643-67.05-46.577 0-27.523 24-46.578 62.81-49.401 65.63-4.234 105.86-11.997 119.27-27.523 0 74.807-47.99 123.501-115.03 123.501M3186.67 580.624c-54.74 0-104.2 25.807-128.6 65.511-19.12-41.689-62.65-64.85-109.47-65.511-46.82 0-86.39 23.822-107.49 61.541V590.55h-71.22v350.461h72.54V749.366c0-60.88 36.93-100.584 89.68-100.584 50.12 0 81.78 37.057 81.78 98.599v193.63h72.54V748.043c0-60.218 36.27-99.261 89.02-99.261 49.46 0 81.12 34.41 81.12 97.275v194.954h72.54V734.146c0-46.983-13.19-84.702-39.57-111.833-25.72-27.793-60.01-41.689-102.87-41.689M1552.05 950.183c112.91 0 189.13-76.218 189.13-188.427 0-111.503-74.81-182.781-189.13-182.781-114.33 0-189.84 71.983-189.84 182.781 0 112.209 77.63 188.427 189.84 188.427m0-67.749c-67.75 0-114.33-50.106-114.33-120.678 0-69.866 45.17-115.032 114.33-115.032 69.86 0 113.62 45.166 113.62 115.032 0 71.278-45.87 120.678-113.62 120.678M2074.85 578.27c-58.57 0-108.68 23.994-139.73 64.22v-59.28h-107.27v61.397h105.86c-21.17 28.229-33.17 64.22-33.17 105.858v129.146h-70.57v61.398h238.53v-61.398h-91.74V748.348c0-56.458 43.04-98.801 98.09-98.801 44.46 0 73.4 28.935 81.86 64.926l69.16-24.7c-14.82-67.043-71.27-111.503-151.02-111.503M2449.76 950.183c62.11 0 119.98-25.406 129.15-64.926 2.82 25.406 16.94 44.46 37.4 54.34 18.35 9.175 40.93 10.586 62.81 2.117V878.2c-9.17 2.117-19.05 2.823-26.82-3.529-7.76-6.351-13.4-20.466-13.4-46.577V703.182c0-76.924-57.87-124.912-158.79-124.912-87.51 0-153.85 35.991-162.32 90.331l67.75 19.761c5.65-27.523 38.82-46.578 90.34-46.578 49.4 0 88.21 16.232 88.21 43.049 0 25.406-35.29 37.403-122.8 43.754-83.27 6.352-134.08 46.578-134.08 111.504 0 64.22 50.1 110.092 142.55 110.092m0-62.809c-41.63 0-67.04-17.643-67.04-46.577 0-27.523 23.99-46.578 62.81-49.401 65.63-4.234 105.86-11.997 119.27-27.523 0 74.807-47.99 123.501-115.04 123.501"/><g clip-path="url(#b)"><path fill="#fb81b8" d="M1101.42 501.152c-6.32-8.526-12.97-16.795-19.92-24.791l.37 10.173 7.02 15.085z"/><path fill="url(#c)" fill-rule="evenodd" d="M778.888 557.501c30.78-27.333 73.346-41.153 114.483-39.254 23.497 1.085 44.573 7.11 61.926 17.095 14.988 8.041 30.034 22.794 42.423 40.054 21.84 19.065 54.66 21.414 79.29 3.84 28.79-20.547 35.48-60.546 14.93-89.34-46.56-65.261-120.496-96.279-192.662-99.611-72.081-3.327-148.412 20.388-206.223 72.126-.197.176-.392.353-.586.531C578.01 565.83 568.261 742.131 671.023 856.963c23.589 26.359 64.078 28.604 90.437 5.015 26.358-23.589 28.603-64.081 5.015-90.44-55.695-62.237-50.344-157.912 11.926-213.598.163-.146.325-.292.487-.439" clip-rule="evenodd"/><mask id="e" width="505" height="490" x="599" y="389" maskUnits="userSpaceOnUse" style="mask-type:alpha"><path fill="url(#d)" fill-rule="evenodd" d="M778.899 557.49c30.78-27.326 73.341-41.142 114.473-39.243 23.496 1.084 44.57 7.109 61.923 17.092 14.989 8.041 30.036 22.795 42.427 40.057 21.838 19.065 54.658 21.414 79.288 3.839 28.8-20.547 35.48-60.546 14.93-89.34-46.56-65.261-120.495-96.279-192.661-99.61-72.081-3.328-148.412 20.388-206.223 72.126-.201.18-.402.362-.601.544-114.445 102.89-124.189 279.181-21.432 394.008 23.589 26.359 64.079 28.605 90.437 5.015 26.359-23.589 28.604-64.081 5.015-90.44-55.695-62.237-50.344-157.912 11.927-213.598.167-.149.332-.299.497-.45" clip-rule="evenodd"/></mask><g mask="url(#e)"><path fill="url(#f)" d="M696.794 409.876 479.212 622.645l397.604 61.808 160.014-125.632v-84.27z" style="mix-blend-mode:multiply"/></g><path fill="url(#g)" fill-rule="evenodd" d="M583.758 456.285c23.578 26.369 21.317 66.859-5.051 90.438-120.531 107.784-130.858 292.836-23.071 413.379 23.578 26.369 21.316 66.858-5.051 90.438-26.368 23.58-66.857 21.32-90.435-5.05-154.936-173.274-140.101-439.307 33.173-594.256 26.368-23.579 66.857-21.318 90.435 5.051" clip-rule="evenodd"/><path fill="url(#h)" fill-rule="evenodd" d="M465.201 955.053c26.368-23.579 66.857-21.318 90.435 5.051C663.416 1080.64 848.461 1090.97 969 983.176c26.367-23.579 66.86-21.317 90.43 5.051 23.58 26.373 21.32 66.863-5.05 90.443-173.263 154.94-439.287 140.1-594.23-33.18-23.578-26.37-21.317-66.858 5.051-90.437" clip-rule="evenodd"/><path fill="url(#i)" fill-rule="evenodd" d="M1042.72 524.524c30.56-17.811 69.78-7.475 87.59 23.087 97.14 166.689 77.81 393.581-75.86 531.039-26.37 23.58-66.858 21.33-90.439-5.04-23.581-26.36-21.325-66.86 5.04-90.438 103.369-92.463 120.579-250.963 50.589-371.06-17.81-30.562-7.48-69.777 23.08-87.588" clip-rule="evenodd"/><mask id="k" width="243" height="580" x="947" y="515" maskUnits="userSpaceOnUse" style="mask-type:alpha"><path fill="url(#j)" fill-rule="evenodd" d="M1042.72 524.524c30.56-17.812 69.78-7.475 87.59 23.087 97.14 166.688 77.81 393.58-75.86 531.039-26.37 23.58-66.858 21.33-90.439-5.04s-21.325-66.86 5.04-90.439c103.369-92.463 120.579-250.963 50.589-371.06-17.81-30.562-7.48-69.776 23.08-87.587" clip-rule="evenodd"/></mask><g mask="url(#k)"><path fill="url(#l)" d="M1017.23 787.403 802.995 1010.84l314.035 89.36 134.64-323.912-177.41-385.841-15.84 322.328z" style="mix-blend-mode:multiply"/></g><path fill="#f97cbf" fill-rule="evenodd" d="m1055.6 450.026 18.73 20.723 18.77 20.723c-.46-.696-.95-1.415-1.48-2.155l1.73 1.855c-.78-1.027-2.21-2.819-4.11-5.12-8.57-11.371-22.23-26.175-33.64-36.026" clip-rule="evenodd"/><path fill="url(#m)" fill-rule="evenodd" d="M676.114 766.509c26.368-23.579 66.857-21.318 90.435 5.05 55.684 62.273 151.355 67.624 213.59 11.927 26.361-23.589 66.851-21.344 90.441 5.015 23.58 26.36 21.34 66.851-5.02 90.44-115.01 102.93-291.683 92.986-394.496-21.994-23.578-26.368-21.317-66.859 5.05-90.438" clip-rule="evenodd"/><path fill="url(#n)" fill-rule="evenodd" d="M1087.54 484.386c-23.59-26.36-64.08-28.605-90.437-5.016-22.825 20.428-27.568 53.529-13.112 79.153 7.95 8.586 15.339 18.468 21.659 28.86 40.71 61.57 31.18 145.354-25.488 196.025-26.367 23.58-28.628 64.07-5.05 90.439 23.578 26.368 64.068 28.629 90.438 5.05 114.97-102.817 124.92-279.496 21.99-394.511" clip-rule="evenodd"/><path fill="url(#o)" fill-rule="evenodd" d="M978.643 553.03c-90.349-105.666-279.98-113.51-399.933-6.243-26.367 23.579-66.856 21.317-90.434-5.052-23.578-26.368-21.317-66.859 5.051-90.438 169.446-151.526 459.009-151.529 598.113 37.965 20.94 28.515 14.79 68.6-13.72 89.533-24.59 18.054-57.79 15.966-79.886-3.242-5.891-8.224-12.385-15.883-19.191-22.523" clip-rule="evenodd"/></g></g><defs><linearGradient id="c" x1="700.739" x2="743.912" y1="765.903" y2="488.37" gradientUnits="userSpaceOnUse"><stop stop-color="#f6d25b"/><stop offset="1" stop-color="#f8b580"/></linearGradient><linearGradient id="d" x1="700.739" x2="743.913" y1="765.904" y2="488.37" gradientUnits="userSpaceOnUse"><stop stop-color="#f6d25b"/><stop offset="1" stop-color="#f8b580"/></linearGradient><linearGradient id="f" x1="894.226" x2="645.573" y1="357.538" y2="644.576" gradientUnits="userSpaceOnUse"><stop stop-color="#895200"/><stop offset=".83333" stop-color="#e28800" stop-opacity="0"/></linearGradient><linearGradient id="g" x1="476.531" x2="507.311" y1="498.978" y2="949.402" gradientUnits="userSpaceOnUse"><stop stop-color="#ed51f2"/><stop offset="1" stop-color="#b771f2"/></linearGradient><linearGradient id="h" x1="475.636" x2="953.23" y1="975.598" y2="1004.36" gradientUnits="userSpaceOnUse"><stop stop-color="#b971f3"/><stop offset="1" stop-color="#8f6fde"/></linearGradient><linearGradient id="i" x1="1070.77" x2="996.795" y1="617.419" y2="1055.17" gradientUnits="userSpaceOnUse"><stop stop-color="#6a4bb2"/><stop offset="1" stop-color="#9170e0"/></linearGradient><linearGradient id="j" x1="1070.77" x2="984.423" y1="577.794" y2="1049.6" gradientUnits="userSpaceOnUse"><stop stop-color="#6a4bb2"/><stop offset="1" stop-color="#9170e0"/></linearGradient><linearGradient id="l" x1="964.956" x2="1076.27" y1="758.822" y2="993.615" gradientUnits="userSpaceOnUse"><stop stop-color="#542da7"/><stop offset=".83333" stop-color="#5f2eaf" stop-opacity="0"/></linearGradient><linearGradient id="m" x1="734.658" x2="953.595" y1="768.985" y2="830.655" gradientUnits="userSpaceOnUse"><stop stop-color="#f6d25b"/><stop offset="1" stop-color="#f9a38f"/></linearGradient><linearGradient id="n" x1="1049.54" x2="1058.75" y1="597.997" y2="831.152" gradientUnits="userSpaceOnUse"><stop stop-color="#fa80b7"/><stop offset="1" stop-color="#f8a48d"/></linearGradient><linearGradient id="o" x1="552.725" x2="1024.52" y1="482.202" y2="506.87" gradientUnits="userSpaceOnUse"><stop stop-color="#e755f3"/><stop offset="1" stop-color="#f97fb6"/></linearGradient><clipPath id="a"><path fill="#fff" d="M353 342h3420v843.819H353z"/></clipPath><clipPath id="b"><path fill="#fff" d="M353 342h837.037v843.819H353z"/></clipPath></defs></svg>
