<svg width="16" height="16" viewBox="0 0 16 16" fill="none" xmlns="http://www.w3.org/2000/svg">
<path d="M2 0C0.896 0 0 0.896 0 2V14C0 15.104 0.896 16 2 16H14C15.104 16 16 15.104 16 14V2C16 0.896 15.104 0 14 0H2ZM4.801 12.8C3.922 12.8 3.2 12.078 3.2 11.199C3.2 10.32 3.922 9.6 4.801 9.6C5.68 9.6 6.4 10.32 6.4 11.199C6.4 12.078 5.68 12.8 4.801 12.8ZM8.326 12.8C8.326 9.975 6.025 7.674 3.2 7.674V5.474C7.24 5.474 10.526 8.76 10.526 12.8H8.326ZM12.012 12.8C12.012 7.938 8.062 3.988 3.2 3.988V1.788C9.276 1.788 14.212 6.724 14.212 12.8H12.012Z" fill="currentColor"/>
</svg>
