<svg width="12" height="12" viewBox="0 0 12 12" fill="none" xmlns="http://www.w3.org/2000/svg">
<path d="M2.53036 7.58601C2.53036 8.28346 1.96713 8.84715 1.27026 8.84715C0.573391 8.84715 0.010166 8.28346 0.010166 7.58601C0.010166 6.88857 0.573391 6.32487 1.27026 6.32487H2.53036V7.58601ZM3.16041 7.58601C3.16041 6.88857 3.72363 6.32487 4.4205 6.32487C5.11738 6.32487 5.6806 6.88857 5.6806 7.58601V10.7389C5.6806 11.4363 5.11738 12 4.4205 12C3.72363 12 3.16041 11.4363 3.16041 10.7389V7.58601Z" fill="currentColor"/>
<path d="M4.41988 2.52228C3.72301 2.52228 3.15979 1.95859 3.15979 1.26114C3.15979 0.563691 3.72301 0 4.41988 0C5.11676 0 5.67998 0.563691 5.67998 1.26114V2.52228H4.41988ZM4.41988 3.1624C5.11676 3.1624 5.67998 3.72609 5.67998 4.42354C5.67998 5.12099 5.11676 5.68468 4.41988 5.68468H1.2601C0.563225 5.68468 0 5.12099 0 4.42354C0 3.72609 0.563225 3.1624 1.2601 3.1624H4.41988Z" fill="currentColor"/>
<path d="M9.47026 4.42354C9.47026 3.72609 10.0335 3.1624 10.7304 3.1624C11.4272 3.1624 11.9905 3.72609 11.9905 4.42354C11.9905 5.12099 11.4272 5.68468 10.7304 5.68468H9.47026V4.42354ZM8.84021 4.42354C8.84021 5.12099 8.27699 5.68468 7.58012 5.68468C6.88324 5.68468 6.32002 5.12099 6.32002 4.42354V1.26114C6.32002 0.563691 6.88324 0 7.58012 0C8.27699 0 8.84021 0.563691 8.84021 1.26114V4.42354Z" fill="currentColor"/>
<path d="M7.58012 9.47772C8.27699 9.47772 8.84021 10.0414 8.84021 10.7389C8.84021 11.4363 8.27699 12 7.58012 12C6.88324 12 6.32002 11.4363 6.32002 10.7389V9.47772H7.58012ZM7.58012 8.84715C6.88324 8.84715 6.32002 8.28346 6.32002 7.58601C6.32002 6.88857 6.88324 6.32487 7.58012 6.32487H10.7399C11.4368 6.32487 12 6.88857 12 7.58601C12 8.28346 11.4368 8.84715 10.7399 8.84715H7.58012Z" fill="currentColor"/>
</svg>
