<svg width="12" height="9" viewBox="0 0 12 9" fill="none" xmlns="http://www.w3.org/2000/svg">
<path d="M11.8805 1.82109C11.8805 1.82109 11.7633 0.99375 11.4023 0.630469C10.9453 0.152344 10.4344 0.15 10.2 0.121875C8.52188 -6.70552e-08 6.00234 0 6.00234 0H5.99766C5.99766 0 3.47813 -6.70552e-08 1.8 0.121875C1.56563 0.15 1.05469 0.152344 0.597656 0.630469C0.236719 0.99375 0.121875 1.82109 0.121875 1.82109C0.121875 1.82109 0 2.79375 0 3.76406V4.67344C0 5.64375 0.119531 6.61641 0.119531 6.61641C0.119531 6.61641 0.236719 7.44375 0.595312 7.80703C1.05234 8.28516 1.65234 8.26875 1.91953 8.32031C2.88047 8.41172 6 8.43985 6 8.43985C6 8.43985 8.52188 8.43516 10.2 8.31563C10.4344 8.2875 10.9453 8.28516 11.4023 7.80703C11.7633 7.44375 11.8805 6.61641 11.8805 6.61641C11.8805 6.61641 12 5.64609 12 4.67344V3.76406C12 2.79375 11.8805 1.82109 11.8805 1.82109ZM4.76016 5.77734V2.40469L8.00156 4.09688L4.76016 5.77734Z" fill="currentColor"/>
</svg>
