<svg xmlns="http://www.w3.org/2000/svg" width="353" height="258" fill="none" viewBox="0 0 353 258"><g fill="#fff" clip-path="url(#a)"><path d="M180.477 197.464h20.699l102.5-137.0211h-20.972z"/><path d="M323.863 218.64v.045l-59.307-79.008-10.918 14.231 65.413 89.993H13.8905V13.8905H149.028l74.355 98.8675 10.849-14.1398-62.666-84.7277h.046L161.058 0H0v257.792h352.665z"/><path d="M160.424 80.4821c-4.88-7.1722-11.19-12.9599-18.998-17.3858-7.785-4.4259-17.181-6.6275-28.144-6.6275s-20.1322 2.0881-28.008 6.2416-14.2991 9.6462-19.247 16.4553-8.6249 14.5714-11.0307 23.2413c-2.3832 8.671-3.5861 17.522-3.5861 26.556 0 9.737 1.2029 18.997 3.5861 27.758s6.0601 16.455 11.0307 23.106c4.9479 6.65 11.3712 11.87 19.247 15.661 7.8758 3.813 17.204 5.719 28.008 5.719 17.34 0 30.754-4.244 40.242-12.756 9.464-8.488 15.978-20.54 19.519-36.11h-16.728c-2.655 10.622-7.444 19.11-14.344 25.488s-16.455 9.556-28.689 9.556c-7.967 0-14.7757-1.68-20.4499-5.039-5.6743-3.359-10.3498-7.603-14.0721-12.756-3.7223-5.129-6.4233-10.94-8.1028-17.386-1.498-5.719-2.3151-11.257-2.4967-16.636-.0454-1.408-.1135-2.792-.2043-4.199-.295-4.154-.2496-8.217.2043-12.189q1.0554-9.192 4.3578-17.976c2.2016-5.9235 5.1749-11.1438 8.8972-15.6605q5.58345-6.77505 13.5501-10.8945c5.3114-2.7463 11.4164-4.1081 18.3164-4.1081s12.756 1.3618 18.067 4.1081 9.828 6.3778 13.55 10.8945 6.582 9.6916 8.625 15.5245c2.042 5.833 3.132 11.962 3.313 18.317H82.6638l.0681 14.072h90.8331c.363-9.556-.522-18.998-2.655-28.281-2.134-9.2827-5.629-17.5217-10.486-24.6939"/></g><defs><clipPath id="a"><path fill="#fff" d="M0 0h352.665v257.792H0z"/></clipPath></defs></svg>
