<svg xmlns="http://www.w3.org/2000/svg" version="1.1" xmlns:xlink="http://www.w3.org/1999/xlink" width="1000" height="1000"><g clip-path="url(#SvgjsClipPath1335)"><rect width="1000" height="1000" fill="#1a1a1a"></rect><g transform="matrix(27.77777777777778,0,0,27.77777777777778,0,0)"><svg xmlns="http://www.w3.org/2000/svg" version="1.1" xmlns:xlink="http://www.w3.org/1999/xlink" width="36" height="36"><svg xmlns="http://www.w3.org/2000/svg" width="36" height="36" fill="none"><g fill="#fff" clip-path="url(#a)"><path d="M18.306 23.444h1.336l8.138-10.879h-1.356l-8.118 10.879Z"></path><path d="M29.713 25.125v.004l-5.056-6.657-.65.863 5.685 7.796H5.102V8.869h11.09l5.863 7.816.67-.901-5.103-6.915h.003l-.838-1.103H4v20.468h28l-2.287-3.109ZM9.41 17.245v-.009.009Z"></path><path d="M16.737 14.156a4.445 4.445 0 0 0-1.508-1.38c-.619-.351-1.365-.526-2.235-.526-.87 0-1.598.165-2.224.495a4.386 4.386 0 0 0-1.528 1.307 5.704 5.704 0 0 0-.876 1.845 7.92 7.92 0 0 0-.284 2.109c0 .773.095 1.508.284 2.203a5.4 5.4 0 0 0 .876 1.835 4.07 4.07 0 0 0 1.528 1.243c.626.303 1.366.454 2.224.454 1.377 0 2.442-.337 3.195-1.012.751-.674 1.269-1.631 1.55-2.867H16.41c-.211.843-.592 1.517-1.14 2.023-.547.507-1.306.759-2.277.759-.633 0-1.173-.133-1.624-.4a3.655 3.655 0 0 1-1.117-1.013 4.08 4.08 0 0 1-.643-1.38 6 6 0 0 1-.198-1.321 10.323 10.323 0 0 0-.017-.334 5.24 5.24 0 0 1 .017-.967 5.92 5.92 0 0 1 .345-1.427c.175-.47.411-.885.707-1.244a3.402 3.402 0 0 1 1.076-.865c.421-.218.906-.326 1.454-.326.548 0 1.013.108 1.434.326.422.218.78.507 1.076.865.296.359.523.77.685 1.233.162.463.249.95.263 1.454h-5.889l.005 1.117h7.212a8.542 8.542 0 0 0-.21-2.245 5.765 5.765 0 0 0-.833-1.96Zm-7.324 3.073v.007-.007Z"></path></g><defs><clipPath id="a"><path fill="#fff" d="M4 7.766h28v20.468H4z"></path></clipPath><clipPath id="SvgjsClipPath1335"><rect width="1000" height="1000" x="0" y="0" rx="0" ry="0"></rect></clipPath></defs></svg></svg></g></g></svg>