<svg xmlns="http://www.w3.org/2000/svg" viewBox="0 0 24 24" xml:space="preserve" width="24" height="24"><path style="fill:#00d2ff" cx="256.005" cy="255.995" r="220.685" d="M22.345 12A10.345 10.345 0 0 1 12 22.345 10.345 10.345 0 0 1 1.655 12a10.345 10.345 0 0 1 20.689 0"/><path style="fill:currentColor" d="M17.659 6.207h2.913a10.5 10.5 0 0 0 -0.624 -0.827h-2.619c-0.59 -1.349 -1.356 -2.465 -2.239 -3.255 -0.976 -0.305 -2.013 -0.47 -3.089 -0.47s-2.114 0.165 -3.089 0.47c-0.883 0.79 -1.649 1.906 -2.239 3.255H4.053a10.5 10.5 0 0 0 -0.624 0.827h2.913c-0.57 1.579 -0.913 3.416 -0.956 5.38H1.666q-0.009 0.206 -0.011 0.413 0.002 0.208 0.011 0.414h3.72c0.043 1.963 0.386 3.8 0.956 5.379H3.429a10.5 10.5 0 0 0 0.624 0.827h2.619c0.59 1.349 1.356 2.464 2.239 3.254 0.976 0.305 2.013 0.47 3.089 0.47s2.114 -0.165 3.089 -0.47c0.883 -0.79 1.649 -1.906 2.239 -3.254h2.619a10.5 10.5 0 0 0 0.624 -0.827h-2.913c0.57 -1.579 0.913 -3.416 0.956 -5.379h3.72q0.009 -0.206 0.011 -0.414 -0.002 -0.208 -0.011 -0.413h-3.72c-0.043 -1.963 -0.386 -3.8 -0.955 -5.38m-6.074 16.108c-1.616 -0.206 -3.051 -1.598 -4.031 -3.694h4.032zm0 -4.522H7.204c-0.588 -1.546 -0.947 -3.392 -0.99 -5.379h5.372zm0.001 -6.206H6.214c0.044 -1.987 0.402 -3.833 0.99 -5.38h4.382zm0.001 -6.207h-4.033c0.98 -2.096 2.416 -3.489 4.033 -3.695zm0.828 -3.695c1.617 0.205 3.053 1.598 4.033 3.695h-4.033zm-0.002 20.63v-3.695h4.034c-0.981 2.097 -2.417 3.49 -4.034 3.695m4.384 -4.522h-4.384v-5.379h5.374c-0.044 1.987 -0.403 3.832 -0.99 5.379m-4.383 -6.206V6.207h4.383c0.588 1.547 0.947 3.392 0.99 5.38z"/></svg>