<svg xmlns="http://www.w3.org/2000/svg" width="20" height="22" viewBox="0 0 32 32"><rect x="1" y="4" width="30" height="24" rx="4" ry="4" fill="#459a45"></rect><path d="M27,4H5c-2.209,0-4,1.791-4,4V24c0,2.209,1.791,4,4,4H27c2.209,0,4-1.791,4-4V8c0-2.209-1.791-4-4-4Zm3,20c0,1.654-1.346,3-3,3H5c-1.654,0-3-1.346-3-3V8c0-1.654,1.346-3,3-3H27c1.654,0,3,1.346,3,3V24Z" opacity=".15"></path><path d="M3.472,16l12.528,8,12.528-8-12.528-8L3.472,16Z" fill="#fedf00"></path><circle cx="16" cy="16" r="5" fill="#0a2172"></circle><path d="M14,14.5c-.997,0-1.958,.149-2.873,.409-.078,.35-.126,.71-.127,1.083,.944-.315,1.951-.493,2.999-.493,2.524,0,4.816,.996,6.519,2.608,.152-.326,.276-.666,.356-1.026-1.844-1.604-4.245-2.583-6.875-2.583Z" fill="#fff"></path><path d="M27,5H5c-1.657,0-3,1.343-3,3v1c0-1.657,1.343-3,3-3H27c1.657,0,3,1.343,3,3v-1c0-1.657-1.343-3-3-3Z" fill="#fff" opacity=".2"></path></svg>