<svg xmlns="http://www.w3.org/2000/svg" width="797" height="583" fill="none"><mask id="a" width="797" height="583" x="0" y="0" maskUnits="userSpaceOnUse" style="mask-type:luminance"><path fill="#fff" d="M796.444 0H0v582.187h796.444V0Z"/></mask><g fill="#fff" mask="url(#a)"><path d="M406.935 445.941h37.984l231.478-309.444h-38.545L406.935 445.941Z"/><path d="M731.398 493.765v.106l-143.83-189.349-18.503 24.553 161.718 221.741H31.37V31.37h315.442l166.741 222.304 19.066-25.628L387.459 31.37h.102L363.725 0H0v582.188h796.444l-65.046-88.423Z"/><path d="M362.291 181.759c-11.022-16.197-25.27-29.267-42.903-39.262-17.581-9.996-38.804-14.968-63.562-14.968-24.755 0-45.465 4.714-63.252 14.095-17.786 9.381-32.291 21.785-43.465 37.162-11.174 15.377-19.478 32.908-24.911 52.489a225.233 225.233 0 0 0-8.099 59.972c0 21.988 2.716 42.903 8.099 62.686 5.382 19.786 13.685 37.163 24.911 52.181 11.174 15.019 25.679 26.809 43.465 35.368 17.787 8.613 38.855 12.917 63.252 12.917 39.163 0 69.456-9.583 90.883-28.806 21.373-19.172 36.085-46.39 44.08-81.55h-37.777c-5.996 23.987-16.813 43.159-32.395 57.56-15.582 14.404-37.163 21.581-64.791 21.581-17.991 0-33.368-3.795-46.182-11.381s-23.373-17.169-31.778-28.806c-8.408-11.585-14.508-24.706-18.301-39.264-3.383-12.917-5.228-25.424-5.638-37.573a294.756 294.756 0 0 0-.461-9.48c-.667-9.381-.564-18.557.461-27.526 1.589-13.841 4.87-27.372 9.842-40.596 4.971-13.38 11.687-25.167 20.093-35.368 8.405-10.2 18.605-18.403 30.6-24.604 11.995-6.204 25.782-9.279 41.364-9.279 15.585 0 28.809 3.075 40.804 9.279 11.992 6.201 22.192 14.404 30.6 24.604 8.406 10.201 14.865 21.886 19.479 35.061 4.611 13.173 7.071 27.011 7.484 41.364H186.681l.153 31.781H391.97c.819-21.581-1.181-42.903-5.999-63.869-4.819-20.964-12.712-39.569-23.68-55.768Z"/></g></svg>