<svg width="16" height="16" viewBox="0 0 16 16" fill="none" xmlns="http://www.w3.org/2000/svg">
<path fill-rule="evenodd" clip-rule="evenodd" d="M8 0C3.58 0 0 3.58 0 8c0 1.41.37 2.73 1.01 3.88L0 16l4.25-1.11A7.96 7.96 0 0 0 8 16c4.42 0 8-3.58 8-8s-3.58-8-8-8zm4.45 11.32c-.19.53-1.11.98-1.52 1.04-.41.06-.83.07-1.34-.08-.31-.1-.7-.23-1.2-.45-2.12-.91-3.5-3.06-3.61-3.2-.1-.14-.84-1.12-.84-2.13 0-1.01.53-1.5.71-1.7.19-.2.41-.25.55-.25.14 0 .27 0 .39.01.13.01.3-.05.46.34.17.4.56 1.36.61 1.46.05.1.08.22.02.35-.06.13-.09.22-.18.33-.09.11-.19.25-.27.34-.09.09-.18.19-.08.38.1.19.46.75.99 1.22.68.6 1.25.79 1.43.88.19.09.3.07.41-.05.12-.12.5-.58.64-.78.13-.2.26-.17.44-.1.18.07 1.16.55 1.36.65.2.1.34.15.39.23.05.08.05.46-.14.99z" fill="currentColor"/>
</svg>
