<?xml version="1.0" encoding="utf-8"?>
<!-- Generator: Adobe Illustrator 14.0.0, SVG Export Plug-In . SVG Version: 6.00 Build 43363)  -->
<!DOCTYPE svg PUBLIC "-//W3C//DTD SVG 1.1//EN" "http://www.w3.org/Graphics/SVG/1.1/DTD/svg11.dtd">
<svg version="1.1" id="Layer_1" xmlns="http://www.w3.org/2000/svg" xmlns:xlink="http://www.w3.org/1999/xlink" x="0px" y="0px"
	 width="250px" height="152px" viewBox="0 0 250 152" enable-background="new 0 0 250 152" xml:space="preserve">
<g>
	<path fill="#FFFFFF" d="M245,76.001c0,39.143-53.725,70.869-120,70.869c-66.273,0-120-31.726-120-70.869
		C5,36.86,58.727,5.129,125,5.129C191.275,5.129,245,36.86,245,76.001"/>
	<path fill="#093A80" d="M69.473,106.478c-2.039-0.69-4.862-1.138-6.397-1.497c-0.837-0.194-1.315-0.447-1.315-1.027
		c0-0.491,0.56-0.938,1.847-0.938c1.032,0,1.733,0.332,1.758,1.342h7.15c0-3.756-3.771-5.009-8.795-5.009
		c-5.896,0-9.276,1.904-9.276,5.257c0,2.077,1.09,3.569,4.189,4.313l5.673,1.337c0.75,0.182,1.339,0.492,1.339,1.094
		c0,0.713-0.753,1.32-1.926,1.32c-0.755,0-1.258-0.204-1.563-0.519c-0.31-0.332-0.42-0.779-0.42-1.227h-7.65
		c0,4.202,4.464,5.407,9.324,5.407c5.697,0,9.721-1.656,9.721-5.606C73.131,108.78,72.013,107.323,69.473,106.478z"/>
	<path fill="#093A80" d="M91.031,99.777H79.3v16.129h7.989v-5.43h2.624c5.642,0,8.266-2.188,8.266-5.407
		C98.179,102.031,95.891,99.777,91.031,99.777 M87.679,106.814h-0.39v-3.375h0.835c1.734,0,2.405,0.487,2.405,1.63
		C90.528,106.207,89.745,106.814,87.679,106.814z"/>
	<path fill="#093A80" d="M113.847,99.348c-6.957,0-10.418,3.468-10.418,8.494s3.461,8.489,10.418,8.489
		c6.955,0,10.42-3.463,10.42-8.489S120.802,99.348,113.847,99.348 M113.847,112.133c-1.227,0-2.154-0.563-2.154-4.291
		c0-3.641,0.868-4.292,2.154-4.292s2.152,0.651,2.152,4.292C115.999,111.57,115.078,112.133,113.847,112.133z"/>
	<path fill="#093A80" d="M145.38,107.753v-0.044c3.012-0.58,3.99-1.989,3.99-3.845c0-3.037-2.542-4.087-6.873-4.087h-11.924v16.129
		h7.821v-5.74h0.916c1.289,0,1.794,0.311,1.958,1.116c0.276,1.387,0.533,3.419,1.01,4.624h7.813
		c-0.914-2.437-0.858-4.712-1.307-6.094C148.392,108.576,147.329,107.886,145.38,107.753 M139.061,106.5h-0.666v-3.061h0.729
		c1.561,0,2.593,0.248,2.593,1.426C141.716,106.074,140.6,106.5,139.061,106.5z"/>
	<polygon fill="#093A80" points="154.587,104.112 159.558,104.112 159.558,115.906 167.545,115.906 167.545,104.112 
		172.514,104.112 172.514,99.777 154.587,99.777 	"/>
	<path fill="#093A80" d="M192.732,106.478c-2.033-0.69-4.856-1.138-6.395-1.497c-0.84-0.194-1.313-0.447-1.313-1.027
		c0-0.491,0.563-0.938,1.842-0.938c1.034,0,1.734,0.332,1.761,1.342h7.154c0-3.756-3.773-5.009-8.8-5.009
		c-5.898,0-9.273,1.904-9.273,5.257c0,2.077,1.09,3.569,4.189,4.313l5.671,1.337c0.755,0.182,1.338,0.492,1.338,1.094
		c0,0.713-0.753,1.32-1.925,1.32c-0.753,0-1.255-0.204-1.563-0.519c-0.311-0.332-0.421-0.779-0.421-1.227h-7.655
		c0,4.202,4.471,5.407,9.333,5.407c5.695,0,9.721-1.656,9.721-5.606C196.396,108.78,195.276,107.323,192.732,106.478z"/>
	<polygon fill="#093A80" points="55.773,95.628 55.773,35.234 92.145,35.234 93.263,51.746 72.903,51.746 72.903,59.624 
		89.492,59.624 89.492,76.105 72.788,76.105 72.788,95.628 	"/>
	<polygon fill="#093A80" points="196.401,95.539 178.22,64.204 194.74,35.316 176.539,35.316 168.984,48.331 161.562,35.316 
		142.717,35.316 159.569,64.408 141.722,95.579 160.025,95.574 168.754,80.31 177.584,95.539 	"/>
	<path fill="#093A80" d="M92.8,65.508c0-16.216,12.882-29.362,28.779-29.362s28.781,13.146,28.781,29.362
		c0,16.219-12.885,29.362-28.781,29.362S92.8,81.727,92.8,65.508 M126.756,77.563V53.437c0-2.751-2.402-5.217-5.095-5.217
		c-2.699,0-4.88,2.465-4.88,5.217l-0.007,24.054c0,2.756,2.188,4.988,4.887,4.988C124.354,82.479,126.756,80.313,126.756,77.563z"/>
	<path fill="#093A80" d="M225.397,79.216c-2.199,33.054-45.156,59.471-98.21,60.108v7.546
		c63.479-0.673,114.923-30.406,117.715-67.654H225.397z"/>
	<path fill="#093A80" d="M122.73,139.319c-52.811-0.806-95.493-27.16-97.683-60.104H5.1c2.79,37.234,54.192,66.959,117.631,67.654
		V139.319z"/>
	<path fill="#093A80" d="M122.73,5.129C58.207,5.837,6.134,36.623,5,74.755h19.995c1.499-33.35,44.463-60.198,97.736-61.012V5.129z"
		/>
	<path fill="#093A80" d="M127.188,5.129v8.61c53.51,0.644,96.757,27.558,98.258,61.015H245
		C243.871,36.605,191.756,5.813,127.188,5.129z"/>
	<polygon fill="#093A80" points="217.877,133.128 216.39,133.128 216.39,127.27 214.241,127.27 214.241,126.017 220.025,126.017 
		220.025,127.27 217.877,127.27 	"/>
	<polygon fill="#093A80" points="227.73,133.128 226.343,133.128 226.343,127.181 226.32,127.181 224.996,133.128 223.539,133.128 
		222.242,127.181 222.224,127.181 222.224,133.128 220.838,133.128 220.838,126.017 223.004,126.017 224.292,131.623 
		224.31,131.623 225.579,126.017 227.73,126.017 	"/>
</g>
</svg>
