<!--
  Made by ShubhamOulkar: https://github.com/ShubhamOulkar/svg-icons
  License: MIT
-->
<svg xmlns="http://www.w3.org/2000/svg" width="32" height="32" viewBox="0 0 32 32" fill="currentColor">
  <g transform="translate(1, 2) scale(0.7)">
    <path d="M16.2 5c-9.3 5.7-9.5 19.7-.3 24.5 6.3 3.2 16.2.9 19.1-4.5 1.5-2.9.7-3.4-4.4-3.1-6.3.4-10.1-3.1-10.1-9.2 0-2.9.6-5.2 1.8-6.4 3.2-3.6-.8-4.5-6.1-1.3m2 6.3c-.4 4.9-.1 5.7 2.8 9 2 2.4 4.4 3.9 6.7 4.3 3.2.6 3.3.8 1.9 2.3-2.7 2.6-10.9 2.2-13.9-.7-4-3.8-5.2-7.6-3.8-12.2.9-3 5-8 6.6-8 .1 0 0 2.4-.3 5.3"/>
  </g>
</svg>
