<svg xmlns="http://www.w3.org/2000/svg" viewBox="0 0 861.6297 500">
  <path fill="#fff" d="M822.05434 464.78529c-23.57102 8.91305-50.08664-1.16881-61.78139-23.49073l-112.4692-155.53981-16.30803-21.72701-130.51543 177.49688c-11.00437 21.35391-36.14786 31.22309-58.7396 23.05618l168.14149-225.57746L453.94772 35.178469c23.20955-8.38407 49.07747.715704 61.98587 21.727011l116.55901 157.4569L749.74175 57.518928c11.0937-21.002063 36.16603-30.356097 58.30506-21.752557l-60.70782 80.543289-82.23033 107.02469c-9.6735 8.63851-9.6735 23.77308 0 32.41158l156.61338 209.03936ZM39.626477 236.19163l13.700796-67.66046C90.953337 34.743916 244.32044-20.928337 349.83703 61.941017 411.61839 110.45615 427.0318 179.1902 424.01558 256.64057H75.94892C70.325459 394.9777 170.14188 478.51165 297.82 435.87559c42.0737-15.33669 73.74401-50.3044 84.17297-93.75842 6.74816-21.72701 17.89283-25.45896 38.29067-19.1709-6.89256 53.65922-37.9963 101.20027-84.40304 129.00732-77.62638 42.45286-173.75024 30.1679-238.204672-30.44338-31.082401-34.94215-49.844311-79.11186-53.49956-125.76104 0-7.66837-2.556118-14.82549-4.345401-21.727-.170408-12.89987-.255612-25.51006-.255612-37.83054zm36.756986-9.35539H391.14389c-1.96821-100.27654-65.2577-171.413323-149.66074-172.077907C147.52023 53.480264 80.294322 123.05782 76.153409 226.40169Z"/>
</svg>
